Coordinates
version=1
nRows=32
nColumns=22
inDegrees=yes

Units are S.I. units (second, meters, Newtons, ...)
If the header above contains a line with 'inDegrees', this indicates whether rotational values are in degrees (yes) or radians (no).

endheader
time	pelvis_tilt	pelvis_list	pelvis_rotation	pelvis_tx	pelvis_ty	pelvis_tz	hip_flexion_r	hip_adduction_r	hip_rotation_r	knee_angle_r	ankle_angle_r	subtalar_angle_r	hip_flexion_l	hip_adduction_l	hip_rotation_l	knee_angle_l	ankle_angle_l	subtalar_angle_l	lumbar_extension	lumbar_bending	lumbar_rotation
      1.37000000	      0.81295556	     -0.95325898	      3.38649867	     -1.17368222	      1.07433104	     -0.55858000	     -1.01763486	     -1.08485405	     -6.11711007	    -14.51978313	     14.97148961	      0.67067501	      0.62922605	      1.19315439	     -0.19702716	    -16.91590008	     15.95292576	     -5.20578806	     -3.94534600	     -1.04802982	     -5.41909103
      1.38000000	      0.71144393	     -0.62578726	      3.62147476	     -1.17277777	      1.07376824	     -0.56058148	     -0.30478346	     -1.55315237	     -6.08845071	    -15.85100363	     15.27027326	      0.42107472	      0.57274019	      1.64145815	      0.05385289	    -16.74017310	     15.90733563	     -5.19175039	     -3.92736454	     -1.38608730	     -5.58624912
      1.39000000	      0.71089129	     -0.25530038	      3.83328137	     -1.17186218	      1.07331374	     -0.56254946	      0.35534114	     -2.06039048	     -5.96535253	    -17.29607458	     15.58667091	      0.27678122	      0.38220269	      2.12707909	      0.27046439	    -16.52895431	     15.84959032	     -5.17542036	     -4.05711141	     -1.76565731	     -5.75388816
      1.40000000	      0.62584755	      0.10542121	      4.03336674	     -1.17102270	      1.07268993	     -0.56447949	      1.19711425	     -2.56253159	     -5.78292991	    -18.90500692	     15.84935533	      0.10770955	      0.29684283	      2.60598972	      0.46774943	    -16.34466635	     15.84961511	     -5.20263700	     -4.11584069	     -2.13722585	     -5.92605767
      1.41000000	      0.59134294	      0.47816167	      4.20935830	     -1.17019189	      1.07212429	     -0.56633026	      2.05064322	     -3.06735351	     -5.52634552	    -20.63451757	     16.05946195	     -0.00111581	      0.14734160	      3.09005748	      0.64388369	    -16.14911879	     15.82195731	     -5.21794138	     -4.25790916	     -2.52110307	     -6.08445242
      1.42000000	      0.54173697	      0.84418829	      4.36671962	     -1.16942103	      1.07152680	     -0.56810120	      2.99519092	     -3.55556775	     -5.20082093	    -22.48993670	     16.18677361	     -0.07367520	      0.02746806	      3.56337418	      0.78691796	    -15.97795314	     15.82325782	     -5.24396694	     -4.41033223	     -2.89611260	     -6.24520443
      1.43000000	      0.49697039	      1.18748207	      4.50071794	     -1.16864780	      1.07094683	     -0.56976882	      4.00021096	     -4.00760198	     -4.83603130	    -24.45033020	     16.21483268	     -0.09987588	     -0.09554473	      4.00559917	      0.89713187	    -15.81204770	     15.82974578	     -5.26729011	     -4.58273108	     -3.24194910	     -6.40852379
      1.44000000	      0.53264744	      1.53368246	      4.61411508	     -1.16783480	      1.07052390	     -0.57134827	      4.97042742	     -4.44858445	     -4.47933183	    -26.49018797	     16.14151705	     -0.10712505	     -0.32761870	      4.44088625	      1.00045472	    -15.60903321	     15.81198431	     -5.26424578	     -4.86550655	     -3.58199137	     -6.55177938
      1.45000000	      0.42565458	      1.80491736	      4.70712588	     -1.16705587	      1.06993304	     -0.57280265	      6.17686270	     -4.81033566	     -4.11518835	    -28.63894111	     15.86089168	     -0.01547224	     -0.36826495	      4.79999584	      1.04547533	    -15.46648255	     15.83723821	     -5.29379215	     -4.98543669	     -3.84568937	     -6.69601050
      1.46000000	      0.39934797	      2.05825550	      4.78970835	     -1.16616842	      1.06951975	     -0.57417328	      7.32674019	     -5.14303797	     -3.80611997	    -30.82030895	     15.48337742	      0.09486686	     -0.51814712	      5.13053229	      1.10282111	    -15.28984501	     15.84115795	     -5.30473419	     -5.20020347	     -4.07817672	     -6.83450624
      1.47000000	      0.37701170	      2.27273432	      4.86904514	     -1.16520763	      1.06917388	     -0.57545613	      8.50335963	     -5.42733653	     -3.53427647	    -33.02279309	     14.97010717	      0.23613183	     -0.66801818	      5.41495861	      1.15761383	    -15.12310475	     15.83639470	     -5.31824971	     -5.41873617	     -4.26148314	     -6.98811246
      1.48000000	      0.35558210	      2.44327739	      4.95140384	     -1.16415170	      1.06888993	     -0.57666731	      9.69620083	     -5.66200033	     -3.31768167	    -35.21522598	     14.34969031	      0.40077052	     -0.81620920	      5.64916431	      1.21929392	    -14.96448234	     15.82743317	     -5.33885417	     -5.63395477	     -4.38943985	     -7.14689001
      1.49000000	      0.34308888	      2.57323011	      5.04370872	     -1.16298555	      1.06867345	     -0.57780523	     10.88202801	     -5.84499046	     -3.14036626	    -37.36731606	     13.65818184	      0.57043287	     -0.96869826	      5.83454344	      1.29350125	    -14.82080757	     15.81999820	     -5.36668612	     -5.85281344	     -4.46699828	     -7.32905811
      1.50000000	      0.34316746	      2.66303068	      5.14889100	     -1.16167953	      1.06852878	     -0.57888035	     12.04003050	     -5.97523512	     -3.00070276	    -39.43977478	     12.93556596	      0.72862113	     -1.13764134	      5.97125619	      1.38501118	    -14.67946686	     15.80426125	     -5.39570246	     -6.07686708	     -4.49583901	     -7.52870788
      1.51000000	      0.33189884	      2.69608247	      5.26801638	     -1.16025329	      1.06840312	     -0.57987675	     13.19173416	     -6.03290932	     -2.89455619	    -41.40657364	     12.23792225	      0.90079684	     -1.27928766	      6.04261892	      1.48635030	    -14.57051982	     15.80596889	     -5.43573947	     -6.27848958	     -4.46047713	     -7.72215909
      1.52000000	      0.32782804	      2.69040758	      5.39592718	     -1.15867343	      1.06832589	     -0.58079422	     14.30224769	     -6.02980832	     -2.80253744	    -43.23064607	     11.62547151	      1.04814432	     -1.43136124	      6.06570952	      1.59464652	    -14.46445018	     15.80956790	     -5.47371206	     -6.47658847	     -4.38232021	     -7.92285362
      1.53000000	      0.31698263	      2.64380900	      5.52780683	     -1.15695735	      1.06826453	     -0.58162064	     15.38515179	     -5.96106839	     -2.71524852	    -44.89025873	     11.14514664	      1.16492687	     -1.57428763	      6.03841154	      1.69929480	    -14.36705156	     15.82541931	     -5.51211220	     -6.65791624	     -4.26213948	     -8.11575342
      1.54000000	      0.29815599	      2.56347800	      5.65594527	     -1.15510328	      1.06821212	     -0.58234561	     16.43751449	     -5.83123899	     -2.62701072	    -46.36351497	     10.82240723	      1.22318592	     -1.70864539	      5.96939761	      1.79671115	    -14.27683908	     15.83462172	     -5.54497407	     -6.81978562	     -4.11151377	     -8.29704694
      1.55000000	      0.26468864	      2.45405302	      5.77328006	     -1.15313087	      1.06814433	     -0.58297341	     17.46658470	     -5.64572547	     -2.53131556	    -47.63724199	     10.66137135	      1.22439925	     -1.82857057	      5.86472561	      1.86885261	    -14.18859039	     15.87781901	     -5.58282491	     -6.95975546	     -3.93507070	     -8.45950411
      1.56000000	      0.21428658	      2.32845322	      5.87467105	     -1.15102704	      1.06805008	     -0.58350266	     18.47288087	     -5.42350965	     -2.43512729	    -48.70501745	     10.63673174	      1.17376012	     -1.93728331	      5.74052284	      1.93053251	    -14.09743991	     15.92729587	     -5.62401403	     -7.07255142	     -3.75135779	     -8.59722059
      1.57000000	      0.14826331	      2.18789264	      5.96202355	     -1.14881237	      1.06792743	     -0.58394949	     19.45328729	     -5.17166133	     -2.34555393	    -49.55914945	     10.69198940	      1.09278522	     -2.03064070	      5.59801485	      1.96930090	    -14.01130150	     15.97699683	     -5.67300006	     -7.16446832	     -3.55924284	     -8.72262563
      1.58000000	      0.06597922	      2.04461933	      6.03675669	     -1.14647031	      1.06776245	     -0.58433278	     20.40566848	     -4.91169376	     -2.27213004	    -50.20367846	     10.79288153	      1.01032469	     -2.11175136	      5.45346855	      2.00332827	    -13.92881434	     16.02792182	     -5.73776493	     -7.23316016	     -3.37297804	     -8.82842692
      1.59000000	     -0.01974232	      1.89743822	      6.10177995	     -1.14401067	      1.06756919	     -0.58466403	     21.31289943	     -4.64904244	     -2.22599668	    -50.63372132	     10.89963843	      0.94697748	     -2.19216873	      5.30404945	      2.03127364	    -13.85251243	     16.08204763	     -5.82083335	     -7.29765438	     -3.18837433	     -8.92720871
      1.60000000	     -0.11423104	      1.76191880	      6.15961412	     -1.14142466	      1.06732962	     -0.58495865	     22.18044544	     -4.40284993	     -2.19930631	    -50.86115598	     10.99601213	      0.90739920	     -2.26747931	      5.16942583	      2.06681060	    -13.78550759	     16.13674742	     -5.93112869	     -7.35187945	     -3.02215968	     -9.02337370
      1.61000000	     -0.17348059	      1.59789509	      6.21757379	     -1.13866164	      1.06712059	     -0.58522543	     22.94323734	     -4.13921699	     -2.23612345	    -50.86040648	     11.07114916	      0.89017906	     -2.38064213	      4.99711245	      2.08387135	    -13.72974732	     16.21451413	     -6.02345945	     -7.43676671	     -2.82182096	     -9.11574108
      1.62000000	     -0.24427573	      1.44674195	      6.27095930	     -1.13578597	      1.06685092	     -0.58546964	     23.66777388	     -3.90070724	     -2.29659126	    -50.66863640	     11.12117316	      0.87785548	     -2.47536336	      4.84158567	      2.10985067	    -13.70106966	     16.30721683	     -6.12546679	     -7.51194652	     -2.63888442	     -9.20495410
      1.63000000	     -0.30030421	      1.30208193	      6.31169815	     -1.13276246	      1.06656249	     -0.58564381	     24.32039044	     -3.67233789	     -2.38006178	    -50.28638818	     11.16674076	      0.86882419	     -2.59101077	      4.69045419	      2.15631256	    -13.67996042	     16.41596913	     -6.19592517	     -7.60361203	     -2.47192096	     -9.27008303
      1.64000000	     -0.36756304	      1.15215630	      6.35618993	     -1.12960661	      1.06621532	     -0.58582031	     24.92384969	     -3.45987700	     -2.51411349	    -49.71215274	     11.17189666	      0.85731028	     -2.67712473	      4.53259826	      2.16963053	    -13.70068435	     16.57830302	     -6.25909008	     -7.67969716	     -2.29541380	     -9.34956228
      1.65000000	     -0.43850521	      1.00311234	      6.39423039	     -1.12632859	      1.06579957	     -0.58595071	     25.48372037	     -3.26254088	     -2.69382897	    -48.98011378	     11.16341617	      0.84325205	     -2.75016046	      4.37312411	      2.17456751	    -13.74953723	     16.77708702	     -6.29876326	     -7.75477292	     -2.12382094	     -9.41956001
      1.66000000	     -0.51539126	      0.85299713	      6.42582725	     -1.12292282	      1.06531569	     -0.58604069	     25.99807665	     -3.07721296	     -2.91877306	    -48.09150583	     11.14654202	      0.82991772	     -2.80955567	      4.21022696	      2.17226151	    -13.82425895	     17.01060716	     -6.31389600	     -7.82405965	     -1.95341132	     -9.47539179
      1.67000000	     -0.60008427	      0.69899661	      6.45056343	     -1.11939043	      1.06475844	     -0.58608867	     26.47029784	     -2.90008897	     -3.19499525	    -47.05648164	     11.11921319	      0.82072603	     -2.85334878	      4.04140741	      2.16288844	    -13.92566052	     17.27416109	     -6.30854258	     -7.88392305	     -1.78076664	     -9.51881625
      1.68000000	     -0.69267171	      0.54363147	      6.46727637	     -1.11573050	      1.06412597	     -0.58609723	     26.90092087	     -2.73031596	     -3.51689948	    -45.88565624	     11.07952199	      0.82226463	     -2.88329688	      3.86970004	      2.15057013	    -14.05234925	     17.55796974	     -6.28947925	     -7.93605846	     -1.60724570	     -9.54655947
